<svg width="1033" height="56" viewBox="0 0 1033 56" fill="none" xmlns="http://www.w3.org/2000/svg">
<path d="M7.43359 0.96875V55H0.271484V0.96875H7.43359ZM30.0703 25.2754V31.1387H5.875V25.2754H30.0703ZM33.7441 0.96875V6.83203H5.875V0.96875H33.7441ZM42.2793 0.96875H60.166C64.2233 0.96875 67.6497 1.58724 70.4453 2.82422C73.2656 4.0612 75.4056 5.89193 76.8652 8.31641C78.3496 10.7161 79.0918 13.6725 79.0918 17.1855C79.0918 19.6595 78.5846 21.9232 77.5703 23.9766C76.5807 26.0052 75.1458 27.737 73.2656 29.1719C71.4102 30.582 69.1836 31.6335 66.5859 32.3262L64.582 33.1055H47.7715L47.6973 27.2793H60.3887C62.9616 27.2793 65.1016 26.834 66.8086 25.9434C68.5156 25.028 69.8021 23.8034 70.668 22.2695C71.5339 20.7357 71.9668 19.041 71.9668 17.1855C71.9668 15.1074 71.5586 13.2891 70.7422 11.7305C69.9258 10.1719 68.6393 8.97201 66.8828 8.13086C65.151 7.26497 62.9121 6.83203 60.166 6.83203H49.4414V55H42.2793V0.96875ZM73.8594 55L60.7227 30.5078L68.1816 30.4707L81.5039 54.5547V55H73.8594ZM130.711 26.2773V29.6914C130.711 33.7487 130.204 37.3854 129.189 40.6016C128.175 43.8177 126.715 46.5514 124.811 48.8027C122.906 51.054 120.617 52.7734 117.945 53.9609C115.298 55.1484 112.329 55.7422 109.039 55.7422C105.848 55.7422 102.916 55.1484 100.244 53.9609C97.597 52.7734 95.2962 51.054 93.3418 48.8027C91.4121 46.5514 89.9154 43.8177 88.8516 40.6016C87.7878 37.3854 87.2559 33.7487 87.2559 29.6914V26.2773C87.2559 22.2201 87.7754 18.5957 88.8145 15.4043C89.8783 12.1882 91.375 9.45443 93.3047 7.20312C95.2344 4.92708 97.5228 3.19531 100.17 2.00781C102.842 0.820312 105.773 0.226562 108.965 0.226562C112.255 0.226562 115.224 0.820312 117.871 2.00781C120.543 3.19531 122.831 4.92708 124.736 7.20312C126.666 9.45443 128.138 12.1882 129.152 15.4043C130.191 18.5957 130.711 22.2201 130.711 26.2773ZM123.623 29.6914V26.2031C123.623 22.987 123.289 20.1419 122.621 17.668C121.978 15.194 121.025 13.1159 119.764 11.4336C118.502 9.7513 116.956 8.47721 115.125 7.61133C113.319 6.74544 111.266 6.3125 108.965 6.3125C106.738 6.3125 104.722 6.74544 102.916 7.61133C101.135 8.47721 99.6009 9.7513 98.3145 11.4336C97.0527 13.1159 96.0755 15.194 95.3828 17.668C94.6901 20.1419 94.3438 22.987 94.3438 26.2031V29.6914C94.3438 32.9323 94.6901 35.8021 95.3828 38.3008C96.0755 40.7747 97.0651 42.8652 98.3516 44.5723C99.6628 46.2546 101.209 47.5286 102.99 48.3945C104.796 49.2604 106.812 49.6934 109.039 49.6934C111.365 49.6934 113.43 49.2604 115.236 48.3945C117.042 47.5286 118.564 46.2546 119.801 44.5723C121.062 42.8652 122.015 40.7747 122.658 38.3008C123.301 35.8021 123.623 32.9323 123.623 29.6914ZM182.998 0.96875V55H175.799L148.598 13.3262V55H141.436V0.96875H148.598L175.91 42.7539V0.96875H182.998ZM214.541 0.96875V55H207.49V0.96875H214.541ZM231.908 0.96875V6.83203H190.16V0.96875H231.908ZM274.25 49.1738V55H245.639V49.1738H274.25ZM247.086 0.96875V55H239.924V0.96875H247.086ZM270.465 24.1992V30.0254H245.639V24.1992H270.465ZM273.879 0.96875V6.83203H245.639V0.96875H273.879ZM324.682 0.96875V55H317.482L290.281 13.3262V55H283.119V0.96875H290.281L317.594 42.7539V0.96875H324.682ZM356.225 0.96875V55H349.174V0.96875H356.225ZM373.592 0.96875V6.83203H331.844V0.96875H373.592ZM396.229 55H384.947L385.021 49.1738H396.229C400.088 49.1738 403.304 48.3698 405.877 46.7617C408.45 45.1289 410.38 42.8529 411.666 39.9336C412.977 36.9896 413.633 33.5508 413.633 29.6172V26.3145C413.633 23.222 413.262 20.4759 412.52 18.0762C411.777 15.6517 410.689 13.6107 409.254 11.9531C407.819 10.2708 406.062 8.99674 403.984 8.13086C401.931 7.26497 399.568 6.83203 396.896 6.83203H384.725V0.96875H396.896C400.434 0.96875 403.663 1.5625 406.582 2.75C409.501 3.91276 412.012 5.60742 414.115 7.83398C416.243 10.0358 417.876 12.7077 419.014 15.8496C420.152 18.9668 420.721 22.4798 420.721 26.3887V29.6172C420.721 33.526 420.152 37.0514 419.014 40.1934C417.876 43.3105 416.23 45.9701 414.078 48.1719C411.951 50.3737 409.378 52.0684 406.359 53.2559C403.366 54.4186 399.989 55 396.229 55ZM388.77 0.96875V55H381.607V0.96875H388.77ZM463.582 29.209V34.8496H445.473V29.209H463.582ZM528.969 33.8105H514.533V27.9844H528.969C531.764 27.9844 534.028 27.5391 535.76 26.6484C537.492 25.7578 538.753 24.5208 539.545 22.9375C540.361 21.3542 540.77 19.5482 540.77 17.5195C540.77 15.6641 540.361 13.9199 539.545 12.2871C538.753 10.6543 537.492 9.3431 535.76 8.35352C534.028 7.33919 531.764 6.83203 528.969 6.83203H516.203V55H509.041V0.96875H528.969C533.051 0.96875 536.502 1.67383 539.322 3.08398C542.143 4.49414 544.283 6.44857 545.742 8.94727C547.202 11.4212 547.932 14.2539 547.932 17.4453C547.932 20.9089 547.202 23.8652 545.742 26.3145C544.283 28.7637 542.143 30.6315 539.322 31.918C536.502 33.1797 533.051 33.8105 528.969 33.8105ZM571.867 5.75586L553.98 55H546.67L567.266 0.96875H571.979L571.867 5.75586ZM586.859 55L568.936 5.75586L568.824 0.96875H573.537L594.207 55H586.859ZM585.932 34.998V40.8613H555.576V34.998H585.932ZM617.994 29.0605H611.574V24.4961H617.734C620.456 24.4961 622.658 24.1126 624.34 23.3457C626.022 22.5788 627.247 21.515 628.014 20.1543C628.781 18.7936 629.164 17.2227 629.164 15.4414C629.164 13.7344 628.743 12.1758 627.902 10.7656C627.061 9.33073 625.762 8.19271 624.006 7.35156C622.249 6.48568 619.986 6.05273 617.215 6.05273C615.137 6.05273 613.257 6.44857 611.574 7.24023C609.892 8.00716 608.556 9.08333 607.566 10.4688C606.577 11.8294 606.082 13.4004 606.082 15.1816H598.92C598.92 12.8809 599.402 10.8151 600.367 8.98438C601.332 7.12891 602.656 5.55794 604.338 4.27148C606.02 2.96029 607.962 1.95833 610.164 1.26562C612.391 0.572917 614.741 0.226562 617.215 0.226562C620.109 0.226562 622.732 0.560547 625.082 1.22852C627.432 1.87174 629.449 2.83659 631.131 4.12305C632.813 5.40951 634.1 7.00521 634.99 8.91016C635.881 10.8151 636.326 13.0293 636.326 15.5527C636.326 17.4082 635.893 19.1523 635.027 20.7852C634.161 22.418 632.924 23.8529 631.316 25.0898C629.708 26.3268 627.779 27.304 625.527 28.0215C623.276 28.7142 620.765 29.0605 617.994 29.0605ZM611.574 25.9062H617.994C621.037 25.9062 623.746 26.2155 626.121 26.834C628.496 27.4525 630.5 28.3555 632.133 29.543C633.766 30.7305 635.003 32.2025 635.844 33.959C636.71 35.6908 637.143 37.6823 637.143 39.9336C637.143 42.457 636.648 44.696 635.658 46.6504C634.693 48.6048 633.32 50.2624 631.539 51.623C629.758 52.9837 627.643 54.0104 625.193 54.7031C622.769 55.3958 620.109 55.7422 617.215 55.7422C614.889 55.7422 612.589 55.4453 610.312 54.8516C608.061 54.2331 606.02 53.293 604.189 52.0312C602.359 50.7448 600.887 49.112 599.773 47.1328C598.685 45.1536 598.141 42.7786 598.141 40.0078H605.303C605.303 41.8138 605.798 43.4714 606.787 44.9805C607.801 46.4896 609.199 47.7018 610.98 48.6172C612.762 49.5078 614.84 49.9531 617.215 49.9531C619.936 49.9531 622.237 49.5326 624.117 48.6914C626.022 47.8255 627.469 46.6504 628.459 45.166C629.473 43.6569 629.98 41.9622 629.98 40.082C629.98 38.4245 629.708 36.9896 629.164 35.7773C628.645 34.5404 627.865 33.526 626.826 32.7344C625.812 31.9427 624.538 31.3613 623.004 30.9902C621.495 30.5944 619.738 30.3965 617.734 30.3965H611.574V25.9062ZM666.496 33.8105H652.061V27.9844H666.496C669.292 27.9844 671.555 27.5391 673.287 26.6484C675.019 25.7578 676.281 24.5208 677.072 22.9375C677.889 21.3542 678.297 19.5482 678.297 17.5195C678.297 15.6641 677.889 13.9199 677.072 12.2871C676.281 10.6543 675.019 9.3431 673.287 8.35352C671.555 7.33919 669.292 6.83203 666.496 6.83203H653.73V55H646.568V0.96875H666.496C670.578 0.96875 674.029 1.67383 676.85 3.08398C679.67 4.49414 681.81 6.44857 683.27 8.94727C684.729 11.4212 685.459 14.2539 685.459 17.4453C685.459 20.9089 684.729 23.8652 683.27 26.3145C681.81 28.7637 679.67 30.6315 676.85 31.918C674.029 33.1797 670.578 33.8105 666.496 33.8105ZM709.395 5.75586L691.508 55H684.197L704.793 0.96875H709.506L709.395 5.75586ZM724.387 55L706.463 5.75586L706.352 0.96875H711.064L731.734 55H724.387ZM723.459 34.998V40.8613H693.104V34.998H723.459ZM771.924 0.96875V6.83203H745.873V55H738.748V0.96875H771.924ZM744.203 22.9746H758.936C762.894 22.9746 766.234 23.6426 768.955 24.9785C771.676 26.2897 773.742 28.1328 775.152 30.5078C776.562 32.8828 777.268 35.666 777.268 38.8574C777.268 41.2324 776.872 43.4095 776.08 45.3887C775.288 47.3431 774.113 49.0501 772.555 50.5098C770.996 51.9447 769.079 53.0579 766.803 53.8496C764.527 54.6165 761.904 55 758.936 55H738.748V0.96875H745.91V49.1738H758.936C761.583 49.1738 763.723 48.6914 765.355 47.7266C767.013 46.737 768.225 45.4505 768.992 43.8672C769.759 42.2839 770.143 40.5892 770.143 38.7832C770.143 36.9772 769.759 35.3197 768.992 33.8105C768.225 32.3014 767.013 31.1016 765.355 30.2109C763.723 29.2956 761.583 28.8379 758.936 28.8379H744.203V22.9746ZM828.516 26.2773V29.6914C828.516 33.7487 828.008 37.3854 826.994 40.6016C825.98 43.8177 824.52 46.5514 822.615 48.8027C820.71 51.054 818.422 52.7734 815.75 53.9609C813.103 55.1484 810.134 55.7422 806.844 55.7422C803.652 55.7422 800.721 55.1484 798.049 53.9609C795.402 52.7734 793.101 51.054 791.146 48.8027C789.217 46.5514 787.72 43.8177 786.656 40.6016C785.592 37.3854 785.061 33.7487 785.061 29.6914V26.2773C785.061 22.2201 785.58 18.5957 786.619 15.4043C787.683 12.1882 789.18 9.45443 791.109 7.20312C793.039 4.92708 795.327 3.19531 797.975 2.00781C800.646 0.820312 803.578 0.226562 806.77 0.226562C810.06 0.226562 813.029 0.820312 815.676 2.00781C818.348 3.19531 820.636 4.92708 822.541 7.20312C824.471 9.45443 825.943 12.1882 826.957 15.4043C827.996 18.5957 828.516 22.2201 828.516 26.2773ZM821.428 29.6914V26.2031C821.428 22.987 821.094 20.1419 820.426 17.668C819.783 15.194 818.83 13.1159 817.568 11.4336C816.307 9.7513 814.76 8.47721 812.93 7.61133C811.124 6.74544 809.07 6.3125 806.77 6.3125C804.543 6.3125 802.527 6.74544 800.721 7.61133C798.939 8.47721 797.406 9.7513 796.119 11.4336C794.857 13.1159 793.88 15.194 793.188 17.668C792.495 20.1419 792.148 22.987 792.148 26.2031V29.6914C792.148 32.9323 792.495 35.8021 793.188 38.3008C793.88 40.7747 794.87 42.8652 796.156 44.5723C797.467 46.2546 799.014 47.5286 800.795 48.3945C802.601 49.2604 804.617 49.6934 806.844 49.6934C809.169 49.6934 811.235 49.2604 813.041 48.3945C814.847 47.5286 816.368 46.2546 817.605 44.5723C818.867 42.8652 819.82 40.7747 820.463 38.3008C821.106 35.8021 821.428 32.9323 821.428 29.6914ZM858.166 0.96875V55H851.115V0.96875H858.166ZM875.533 0.96875V6.83203H833.785V0.96875H875.533ZM882.881 0.96875H890.043V17.8535C890.043 20.6491 890.451 22.8385 891.268 24.4219C892.084 26.0052 893.321 27.1185 894.979 27.7617C896.636 28.4049 898.702 28.7266 901.176 28.7266C902.66 28.7266 904.095 28.6647 905.48 28.541C906.891 28.4173 908.264 28.2441 909.6 28.0215C910.936 27.7988 912.247 27.5267 913.533 27.2051C914.844 26.8835 916.131 26.5371 917.393 26.166V32.0293C916.18 32.4004 914.968 32.7467 913.756 33.0684C912.568 33.39 911.331 33.6621 910.045 33.8848C908.783 34.1074 907.423 34.2806 905.963 34.4043C904.528 34.528 902.932 34.5898 901.176 34.5898C897.366 34.5898 894.088 34.0456 891.342 32.957C888.62 31.8438 886.53 30.0625 885.07 27.6133C883.611 25.1641 882.881 21.9108 882.881 17.8535V0.96875ZM915.574 0.96875H922.736V55H915.574V0.96875ZM943.035 42.6055L969.643 0.96875H976.805V55H969.643V13.3262L943.035 55H935.91V0.96875H943.035V42.6055ZM997.326 0.96875V55H990.164V0.96875H997.326ZM1030.61 0.96875L1007.16 30.6934H994.469L993.355 24.7559H1002.89L1021.74 0.96875H1030.61ZM1023.41 55L1003.12 29.7656L1007.12 23.4941L1032.17 55H1023.41Z" fill="#F0F0F0"/>
</svg>
