<svg width="184" height="52" viewBox="0 0 184 52" fill="none" xmlns="http://www.w3.org/2000/svg">
<path d="M1.232 4.976V1.448H4.148V4.976H1.232ZM1.34 33.128V8H4.04V33.128H1.34ZM15.7428 26.288C14.5188 26.288 13.3548 26 12.2508 25.424C11.1468 24.824 10.2468 23.948 9.55081 22.796C8.87881 21.62 8.54281 20.18 8.54281 18.476V8H11.2428V18.404C11.2428 20.036 11.7108 21.356 12.6468 22.364C13.6068 23.348 14.8188 23.84 16.2828 23.84C17.2908 23.84 18.2028 23.612 19.0188 23.156C19.8348 22.676 20.4828 22.028 20.9628 21.212C21.4668 20.396 21.7188 19.448 21.7188 18.368V8H24.4188V26H21.7188V23.192C21.0708 24.056 20.2788 24.788 19.3428 25.388C18.4068 25.988 17.2068 26.288 15.7428 26.288ZM29.1134 26V0.799998H31.8134V26H29.1134ZM36.3883 4.976V1.448H39.3043V4.976H36.3883ZM36.4963 26V8H39.1963V26H36.4963ZM51.4751 26.288C49.7231 26.288 48.1871 25.88 46.8671 25.064C45.5711 24.224 44.5631 23.096 43.8431 21.68C43.1231 20.264 42.7631 18.704 42.7631 17C42.7631 15.272 43.1231 13.712 43.8431 12.32C44.5631 10.904 45.5711 9.788 46.8671 8.972C48.1871 8.132 49.7231 7.712 51.4751 7.712C52.9631 7.712 54.2351 8 55.2911 8.576C56.3711 9.152 57.2471 9.932 57.9191 10.916V8H60.6191V26H57.9191V23.12C57.2471 24.08 56.3711 24.848 55.2911 25.424C54.2351 26 52.9631 26.288 51.4751 26.288ZM51.8351 23.84C53.1791 23.84 54.3071 23.528 55.2191 22.904C56.1551 22.28 56.8631 21.452 57.3431 20.42C57.8231 19.364 58.0631 18.224 58.0631 17C58.0631 15.752 57.8231 14.612 57.3431 13.58C56.8631 12.548 56.1551 11.72 55.2191 11.096C54.3071 10.472 53.1791 10.16 51.8351 10.16C50.5151 10.16 49.3751 10.472 48.4151 11.096C47.4551 11.72 46.7231 12.548 46.2191 13.58C45.7151 14.612 45.4631 15.752 45.4631 17C45.4631 18.224 45.7151 19.364 46.2191 20.42C46.7231 21.452 47.4551 22.28 48.4151 22.904C49.3751 23.528 50.5151 23.84 51.8351 23.84ZM9.332 51.288C7.508 51.288 5.912 50.88 4.544 50.064C3.176 49.224 2.108 48.096 1.34 46.68C0.596 45.264 0.224 43.704 0.224 42C0.224 40.272 0.584 38.712 1.304 37.32C2.024 35.904 3.056 34.788 4.4 33.972C5.744 33.132 7.328 32.712 9.152 32.712C11 32.712 12.584 33.132 13.904 33.972C15.248 34.788 16.28 35.904 17 37.32C17.72 38.712 18.08 40.272 18.08 42V43.08H2.996C3.14 44.136 3.476 45.108 4.004 45.996C4.556 46.86 5.288 47.556 6.2 48.084C7.112 48.588 8.168 48.84 9.368 48.84C10.64 48.84 11.708 48.564 12.572 48.012C13.436 47.436 14.108 46.704 14.588 45.816H17.54C16.916 47.424 15.92 48.744 14.552 49.776C13.208 50.784 11.468 51.288 9.332 51.288ZM3.032 40.56H15.272C15.032 39.024 14.384 37.74 13.328 36.708C12.272 35.676 10.88 35.16 9.152 35.16C7.424 35.16 6.032 35.676 4.976 36.708C3.944 37.74 3.296 39.024 3.032 40.56ZM21.3791 51V33H24.0791V35.736C24.4871 35.016 25.1351 34.332 26.0231 33.684C26.9111 33.036 28.0871 32.712 29.5511 32.712C30.7511 32.712 31.8551 33.036 32.8631 33.684C33.8951 34.308 34.6991 35.196 35.2751 36.348C35.5151 35.94 35.8871 35.448 36.3911 34.872C36.9191 34.296 37.6031 33.792 38.4431 33.36C39.2831 32.928 40.2911 32.712 41.4671 32.712C42.6191 32.712 43.6991 33.012 44.7071 33.612C45.7151 34.212 46.5311 35.076 47.1551 36.204C47.8031 37.308 48.1271 38.616 48.1271 40.128V51H45.4271V40.2C45.4271 38.688 44.9951 37.476 44.1311 36.564C43.2911 35.628 42.2351 35.16 40.9631 35.16C39.6431 35.16 38.5031 35.604 37.5431 36.492C36.5831 37.38 36.1031 38.628 36.1031 40.236V51H33.4031V40.2C33.4031 38.688 32.9711 37.476 32.1071 36.564C31.2671 35.628 30.2111 35.16 28.9391 35.16C27.6191 35.16 26.4791 35.604 25.5191 36.492C24.5591 37.38 24.0791 38.628 24.0791 40.236V51H21.3791ZM60.625 51.288C58.801 51.288 57.205 50.88 55.837 50.064C54.469 49.224 53.401 48.096 52.633 46.68C51.889 45.264 51.517 43.704 51.517 42C51.517 40.272 51.877 38.712 52.597 37.32C53.317 35.904 54.349 34.788 55.693 33.972C57.037 33.132 58.621 32.712 60.445 32.712C62.293 32.712 63.877 33.132 65.197 33.972C66.541 34.788 67.573 35.904 68.293 37.32C69.013 38.712 69.373 40.272 69.373 42V43.08H54.289C54.433 44.136 54.769 45.108 55.297 45.996C55.849 46.86 56.581 47.556 57.493 48.084C58.405 48.588 59.461 48.84 60.661 48.84C61.933 48.84 63.001 48.564 63.865 48.012C64.729 47.436 65.401 46.704 65.881 45.816H68.833C68.209 47.424 67.213 48.744 65.845 49.776C64.501 50.784 62.761 51.288 60.625 51.288ZM54.325 40.56H66.565C66.325 39.024 65.677 37.74 64.621 36.708C63.565 35.676 62.173 35.16 60.445 35.16C58.717 35.16 57.325 35.676 56.269 36.708C55.237 37.74 54.589 39.024 54.325 40.56ZM72.672 51V25.8H75.372V51H72.672ZM79.9468 29.976V26.448H82.8628V29.976H79.9468ZM80.0548 51V33H82.7548V51H80.0548ZM95.0337 51.288C93.2817 51.288 91.7457 50.88 90.4257 50.064C89.1297 49.224 88.1217 48.096 87.4017 46.68C86.6817 45.264 86.3217 43.704 86.3217 42C86.3217 40.272 86.6817 38.712 87.4017 37.32C88.1217 35.904 89.1297 34.788 90.4257 33.972C91.7457 33.132 93.2817 32.712 95.0337 32.712C96.5217 32.712 97.7937 33 98.8497 33.576C99.9297 34.152 100.806 34.932 101.478 35.916V33H104.178V51H101.478V48.12C100.806 49.08 99.9297 49.848 98.8497 50.424C97.7937 51 96.5217 51.288 95.0337 51.288ZM95.3937 48.84C96.7377 48.84 97.8657 48.528 98.7777 47.904C99.7137 47.28 100.422 46.452 100.902 45.42C101.382 44.364 101.622 43.224 101.622 42C101.622 40.752 101.382 39.612 100.902 38.58C100.422 37.548 99.7137 36.72 98.7777 36.096C97.8657 35.472 96.7377 35.16 95.3937 35.16C94.0737 35.16 92.9337 35.472 91.9737 36.096C91.0137 36.72 90.2817 37.548 89.7777 38.58C89.2737 39.612 89.0217 40.752 89.0217 42C89.0217 43.224 89.2737 44.364 89.7777 45.42C90.2817 46.452 91.0137 47.28 91.9737 47.904C92.9337 48.528 94.0737 48.84 95.3937 48.84ZM108.848 51V33H111.548V35.808C112.196 34.944 112.988 34.212 113.924 33.612C114.86 33.012 116.06 32.712 117.524 32.712C118.772 32.712 119.936 33.012 121.016 33.612C122.12 34.188 123.008 35.064 123.68 36.24C124.376 37.392 124.724 38.82 124.724 40.524V51H122.024V40.596C122.024 38.964 121.556 37.656 120.62 36.672C119.684 35.664 118.472 35.16 116.984 35.16C115.976 35.16 115.064 35.388 114.248 35.844C113.432 36.3 112.772 36.948 112.268 37.788C111.788 38.604 111.548 39.552 111.548 40.632V51H108.848ZM137.05 51.288C135.226 51.288 133.642 50.88 132.298 50.064C130.954 49.224 129.922 48.096 129.202 46.68C128.482 45.264 128.122 43.704 128.122 42C128.122 40.272 128.482 38.712 129.202 37.32C129.922 35.904 130.954 34.788 132.298 33.972C133.642 33.132 135.226 32.712 137.05 32.712C138.898 32.712 140.482 33.132 141.802 33.972C143.146 34.788 144.178 35.904 144.898 37.32C145.618 38.712 145.978 40.272 145.978 42C145.978 43.704 145.618 45.264 144.898 46.68C144.178 48.096 143.146 49.224 141.802 50.064C140.482 50.88 138.898 51.288 137.05 51.288ZM137.05 48.84C138.394 48.84 139.522 48.528 140.434 47.904C141.37 47.28 142.078 46.452 142.558 45.42C143.038 44.364 143.278 43.224 143.278 42C143.278 40.752 143.038 39.612 142.558 38.58C142.078 37.548 141.37 36.72 140.434 36.096C139.522 35.472 138.394 35.16 137.05 35.16C135.73 35.16 134.602 35.472 133.666 36.096C132.73 36.72 132.022 37.548 131.542 38.58C131.062 39.612 130.822 40.752 130.822 42C130.822 43.224 131.062 44.364 131.542 45.42C132.022 46.452 132.73 47.28 133.666 47.904C134.602 48.528 135.73 48.84 137.05 48.84ZM154.103 51L147.047 33H149.999L155.687 48.12L161.339 33H164.291L157.271 51H154.103ZM174.065 51.288C172.313 51.288 170.777 50.88 169.457 50.064C168.161 49.224 167.153 48.096 166.433 46.68C165.713 45.264 165.353 43.704 165.353 42C165.353 40.272 165.713 38.712 166.433 37.32C167.153 35.904 168.161 34.788 169.457 33.972C170.777 33.132 172.313 32.712 174.065 32.712C175.553 32.712 176.825 33 177.881 33.576C178.961 34.152 179.837 34.932 180.509 35.916V33H183.209V51H180.509V48.12C179.837 49.08 178.961 49.848 177.881 50.424C176.825 51 175.553 51.288 174.065 51.288ZM174.425 48.84C175.769 48.84 176.897 48.528 177.809 47.904C178.745 47.28 179.453 46.452 179.933 45.42C180.413 44.364 180.653 43.224 180.653 42C180.653 40.752 180.413 39.612 179.933 38.58C179.453 37.548 178.745 36.72 177.809 36.096C176.897 35.472 175.769 35.16 174.425 35.16C173.105 35.16 171.965 35.472 171.005 36.096C170.045 36.72 169.313 37.548 168.809 38.58C168.305 39.612 168.053 40.752 168.053 42C168.053 43.224 168.305 44.364 168.809 45.42C169.313 46.452 170.045 47.28 171.005 47.904C171.965 48.528 173.105 48.84 174.425 48.84Z" fill="#333333"/>
</svg>
